# xmcd
#
# Track frame offsets:
#	150
#	11360
#	25242
#	38322
#	50130
#	66295
#	80512
#	99835
#	112185
#	126792
#
# Disc length: 1836 seconds
#
# Revision: 0
# Processed by: cddbd v1.5.1PL2 Copyright (c) Steve Scherf et al.
# Submitted via: EasyCDDAExtractor 8.2.2.1
#
DISCID=78072a0a
DTITLE=Little Joe - Tu Amigo
DYEAR=1900
DGENRE=Country
TTITLE0=Margarita
TTITLE1=Faded Dreams
TTITLE2=Marie
TTITLE3=My World Would End
TTITLE4=To Kill A Memory
TTITLE5=You Belong To My Heart
TTITLE6=Feedin' Her Memory
TTITLE7=Prefiero Vivir ( Stand In Your Way
TTITLE8=I'll Be Wating
TTITLE9=Jalisco and Guadalajara
EXTD=
EXTT0=
EXTT1=
EXTT2=
EXTT3=
EXTT4=
EXTT5=
EXTT6=
EXTT7=
EXTT8=
EXTT9=
PLAYORDER=
